# xmcd CD database file
#
# Track frame offsets:
#	150
#	15933
#	38840
#	52645
#	66142
#	80118
#	99386
#	109609
#	128138
#
# Disc length: 2019 seconds
#
# Revision: 0
# Processed by: cddbd v1.5.1PL0 Copyright (c) Steve Scherf et al.
# Submitted via: CDex 1.51
#
DISCID=6307e109
DTITLE=Ryan Flickinger - One Year Later
DYEAR=2004
DGENRE=Jazz
TTITLE0=Mellow Spring Morning
TTITLE1=When You're Good And Ready
TTITLE2=Of Dreams And Doors
TTITLE3=Like A Good Friend
TTITLE4=One Year Later
TTITLE5=Evading Sleep
TTITLE6=Swallow A Sigh
TTITLE7=Afterthought
TTITLE8=So Near Tonight
EXTD=YEAR: 2004
EXTT0=
EXTT1=
EXTT2=
EXTT3=
EXTT4=
EXTT5=
EXTT6=
EXTT7=
EXTT8=
PLAYORDER=
